<mxfile host="app.diagrams.net" modified="2023-02-28T22:40:23.550Z" agent="5.0 (Windows)" etag="IVVMNmAKlYgvWmVW_Zt7" version="20.8.23" type="github">
  <diagram name="PÃ¡gina-1" id="OId08yhoiPZgqGbNBpm5">
    <mxGraphModel dx="794" dy="394" grid="1" gridSize="10" guides="1" tooltips="1" connect="1" arrows="1" fold="1" page="1" pageScale="1" pageWidth="827" pageHeight="1169" math="0" shadow="0">
      <root>
        <mxCell id="0" />
        <mxCell id="1" parent="0" />
      </root>
    </mxGraphModel>
  </diagram>
</mxfile>
